<svg xmlns="http://www.w3.org/2000/svg" viewBox="0 0 30.09 29.5"><defs><style>.cls-1{fill:#1a1a1a;fill-rule:evenodd;}</style></defs><title>Asset 14</title><g id="Layer_2" data-name="Layer 2"><g id="Homepage"><g id="Footer"><path class="cls-1" d="M15.05,0a14.91,14.91,0,0,1,15,14.75,14.91,14.91,0,0,1-15,14.75A14.91,14.91,0,0,1,0,14.75,14.91,14.91,0,0,1,15.05,0ZM12.4,22.6A10.12,10.12,0,0,0,22.7,12.5c0-.16,0-.31,0-.46A7.36,7.36,0,0,0,24.5,10.2a7.61,7.61,0,0,1-2.08.56A3.55,3.55,0,0,0,24,8.8a7.48,7.48,0,0,1-2.3.86,3.64,3.64,0,0,0-2.64-1.12,3.59,3.59,0,0,0-3.62,3.55,3.1,3.1,0,0,0,.1.81A10.33,10.33,0,0,1,8.09,9.19,3.47,3.47,0,0,0,7.6,11a3.52,3.52,0,0,0,1.61,2.95,3.73,3.73,0,0,1-1.63-.44v0A3.57,3.57,0,0,0,10.48,17a3.69,3.69,0,0,1-1,.13,3.08,3.08,0,0,1-.68-.07,3.6,3.6,0,0,0,3.37,2.47A7.34,7.34,0,0,1,7.73,21,6.26,6.26,0,0,1,6.86,21,10.22,10.22,0,0,0,12.4,22.6Z"/></g></g></g></svg>