<svg xmlns="http://www.w3.org/2000/svg" viewBox="0 0 30.09 29.5"><defs><style>.cls-1{fill:#1a1a1a;fill-rule:evenodd;}</style></defs><title>Asset 13</title><g id="Layer_2" data-name="Layer 2"><g id="Homepage"><g id="Footer"><path class="cls-1" d="M15.05,0a14.91,14.91,0,0,1,15,14.75,14.91,14.91,0,0,1-15,14.75A14.91,14.91,0,0,1,0,14.75,14.91,14.91,0,0,1,15.05,0ZM10.34,23V11.52H6.44V23Zm14.09,0V16.43c0-3.53-1.93-5.18-4.5-5.18a3.9,3.9,0,0,0-3.52,1.9V11.52H12.5c.06,1.08,0,11.52,0,11.52h3.91V16.61a2.46,2.46,0,0,1,.13-.94,2.12,2.12,0,0,1,2-1.4c1.42,0,2,1.06,2,2.61V23ZM8.42,6a2,2,0,1,0-.06,4h0a2,2,0,1,0,0-4Z"/></g></g></g></svg>