<svg xmlns="http://www.w3.org/2000/svg" viewBox="0 0 30.09 29.5"><defs><style>.cls-1,.cls-2{fill:#1a1a1a;}.cls-1{fill-rule:evenodd;}</style></defs><title>Asset 16</title><g id="Layer_2" data-name="Layer 2"><g id="Homepage"><g id="Footer"><path class="cls-1" d="M15.05,0A14.9,14.9,0,0,0,0,14.75a14.78,14.78,0,0,0,10.29,14c.75.13,1-.3,1-.7s0-1.33,0-2.56c-4.18.9-5-1.94-5-1.94a4,4,0,0,0-1.67-2.16c-1.37-.91.1-.89.1-.89A3.16,3.16,0,0,1,7,22a3.23,3.23,0,0,0,4.37,1.22,3.15,3.15,0,0,1,1-2C9,20.9,5.45,19.63,5.45,14A5.61,5.61,0,0,1,7,10a5.15,5.15,0,0,1,.14-3.9s1.27-.4,4.14,1.51a14.46,14.46,0,0,1,7.54,0C21.69,5.72,23,6.12,23,6.12A5.22,5.22,0,0,1,23.1,10a5.66,5.66,0,0,1,1.55,4c0,5.67-3.52,6.91-6.87,7.28a3.43,3.43,0,0,1,1,2.71v4.09c0,.39.24.83,1,.69a14.78,14.78,0,0,0,10.28-14A14.89,14.89,0,0,0,15.05,0Z"/><line class="cls-2" x1="15.85" y1="29.5" x2="13.85" y2="29.5"/></g></g></g></svg>