<svg xmlns="http://www.w3.org/2000/svg" viewBox="0 0 30 30"><defs><style>.cls-1{fill:#1a1a1a;}</style></defs><title>Asset 10</title><g id="Layer_2" data-name="Layer 2"><g id="Contact_Page" data-name="Contact Page"><g id="Content"><path class="cls-1" d="M15,0A15,15,0,1,0,30,15,15,15,0,0,0,15,0Zm9.68,22.16c-.81,1.25-1.51,2.54-4.87,2.62s-7-2.85-9.59-5.69c-2.59-2.52-5-5.77-5-8.92C5.32,6.81,6.61,6.11,7.86,5.3a1.29,1.29,0,0,1,1.27.23c.6.52,3.2,3.12,3.2,3.12s.92.77.28,1.62c-.5.68-1.67,1.94-1.83,2.1l.44.83a16,16,0,0,0,3.39,4.05,22.92,22.92,0,0,0,3,1.95c.28-.26,1.42-1.32,2.06-1.79.85-.64,1.62.28,1.62.28s2.6,2.61,3.12,3.2A1.29,1.29,0,0,1,24.68,22.16Z"/></g></g></g></svg>