<svg xmlns="http://www.w3.org/2000/svg" viewBox="0 0 30.09 29.5"><defs><style>.cls-1{fill:#1a1a1a;fill-rule:evenodd;}</style></defs><title>Asset 15</title><g id="Layer_2" data-name="Layer 2"><g id="Homepage"><g id="Footer"><path class="cls-1" d="M15.05,0a14.91,14.91,0,0,1,15,14.75,14.91,14.91,0,0,1-15,14.75A14.91,14.91,0,0,1,0,14.75,14.91,14.91,0,0,1,15.05,0Zm0,5.53c-2.56,0-2.88,0-3.88.06A6.79,6.79,0,0,0,8.89,6,4.72,4.72,0,0,0,6.14,8.71,6.37,6.37,0,0,0,5.7,11c0,1-.06,1.3-.06,3.8s0,2.82.06,3.8a6.37,6.37,0,0,0,.44,2.24,4.72,4.72,0,0,0,2.75,2.69,6.79,6.79,0,0,0,2.28.43c1,.05,1.32.06,3.88.06s2.87,0,3.87-.06a6.85,6.85,0,0,0,2.29-.43,4.51,4.51,0,0,0,1.66-1.06A4.45,4.45,0,0,0,24,20.79a6.63,6.63,0,0,0,.43-2.24c.05-1,.06-1.3.06-3.8s0-2.82-.06-3.8A6.63,6.63,0,0,0,24,8.71a4.45,4.45,0,0,0-1.09-1.63A4.51,4.51,0,0,0,21.21,6a6.85,6.85,0,0,0-2.29-.43C17.92,5.54,17.6,5.53,15.05,5.53Zm0,1.66c2.51,0,2.81,0,3.8.06a5.48,5.48,0,0,1,1.74.31,3.13,3.13,0,0,1,1.79,1.75A5,5,0,0,1,22.7,11c.05,1,.06,1.27.06,3.73s0,2.75-.06,3.73a5,5,0,0,1-.32,1.71,3.13,3.13,0,0,1-1.79,1.75,5.48,5.48,0,0,1-1.74.31c-1,.05-1.29.06-3.8.06s-2.81,0-3.8-.06a5.5,5.5,0,0,1-1.75-.31,3,3,0,0,1-1.08-.69,2.89,2.89,0,0,1-.7-1.06,5,5,0,0,1-.33-1.71c0-1,0-1.27,0-3.73s0-2.75,0-3.73a5,5,0,0,1,.33-1.71,2.89,2.89,0,0,1,.7-1.06A3,3,0,0,1,9.5,7.56a5.5,5.5,0,0,1,1.75-.31c1,0,1.29-.06,3.8-.06Zm0,2.83a4.73,4.73,0,1,0,4.83,4.73A4.78,4.78,0,0,0,15.05,10Zm0,7.8a3.07,3.07,0,1,1,3.13-3.07A3.11,3.11,0,0,1,15.05,17.82Zm6.15-8a1.13,1.13,0,1,1-1.13-1.11A1.12,1.12,0,0,1,21.2,9.83Z"/></g></g></g></svg>